<svg xmlns="http://www.w3.org/2000/svg" width="50" height="50" viewBox="0 0 50 50">
  <g id="그룹_275" data-name="그룹 275" transform="translate(-1200 -27)">
    <g id="사각형_319" data-name="사각형 319" transform="translate(1200 27)" fill="#06f" stroke="#fff" stroke-width="3">
      <rect width="50" height="50" rx="25" stroke="none"/>
      <rect x="1.5" y="1.5" width="47" height="47" rx="23.5" fill="none"/>
    </g>
    <g id="교차_1" data-name="교차 1" transform="translate(1192 25)" fill="#06f">
      <path d="M 33.00030517578125 50.50019836425781 C 29.13170433044434 50.50019836425781 25.29738426208496 49.5406608581543 21.911865234375 47.72530746459961 C 18.86553573608398 46.09184646606445 16.18590545654297 43.77487182617188 14.12048435211182 40.99570083618164 C 15.6175537109375 37.46340942382812 18.06206703186035 34.43927001953125 21.22727584838867 32.21496963500977 C 24.68569564819336 29.78461837768555 28.75673484802246 28.5 33.00030517578125 28.5 C 37.24353408813477 28.5 41.31432342529297 29.78461837768555 44.77260589599609 32.21496963500977 C 47.93771743774414 34.43930816650391 50.38217926025391 37.46345901489258 51.87923049926758 40.99574279785156 C 49.81386184692383 43.77489852905273 47.13430404663086 46.09187698364258 44.08809661865234 47.72533798217773 C 40.70273590087891 49.54066848754883 36.86863327026367 50.50019836425781 33.00030517578125 50.50019836425781 Z" stroke="none"/>
      <path d="M 33.00030517578125 49.00019836425781 C 36.62213516235352 49.00019836425781 40.21111679077148 48.10223770141602 43.37923431396484 46.40340805053711 C 45.97627639770508 45.01079559326172 48.28849411010742 43.08787536621094 50.14154434204102 40.79030609130859 C 48.7368278503418 37.85538864135742 46.60551834106445 35.33644866943359 43.91013336181641 33.44221878051758 C 40.70576477050781 31.19029998779297 36.93320465087891 30 33.00030517578125 30 C 29.06705474853516 30 25.29423522949219 31.19030952453613 22.08972549438477 33.44223785400391 C 19.39426422119141 35.33643341064453 17.26291465759277 37.85534286499023 15.85818195343018 40.79026412963867 C 17.71127319335938 43.08783340454102 20.02356147766113 45.01075744628906 22.62070465087891 46.40336990356445 C 25.78899574279785 48.10223007202148 29.37819480895996 49.00019836425781 33.00030517578125 49.00019836425781 M 33.00030517578125 52.00019836425781 C 24.46734428405762 52.00019836425781 16.93323516845703 47.72546768188477 12.42215538024902 41.20088958740234 C 15.56972503662109 32.90023803710938 23.59566497802734 27 33.00030517578125 27 C 42.40423583984375 27 50.43001556396484 32.9002799987793 53.57755661010742 41.20092010498047 C 49.06655502319336 47.72550964355469 41.5327033996582 52.00019836425781 33.00030517578125 52.00019836425781 Z" stroke="none" fill="#fff"/>
    </g>
    <g id="타원_1" data-name="타원 1" transform="translate(1215 35)" fill="#06f" stroke="#fff" stroke-width="3">
      <circle cx="10" cy="10" r="10" stroke="none"/>
      <circle cx="10" cy="10" r="8.5" fill="none"/>
    </g>
  </g>
</svg>
